<?xml version="1.0" standalone="no"?>
<!DOCTYPE svg PUBLIC "-//W3C//DTD SVG 20010904//EN"
 "http://www.w3.org/TR/2001/REC-SVG-20010904/DTD/svg10.dtd">
<svg version="1.0" xmlns="http://www.w3.org/2000/svg"
 width="380.000000pt" height="380.000000pt" viewBox="0 0 380.000000 380.000000"
 preserveAspectRatio="xMidYMid meet">
<metadata>
Created by potrace 1.11, written by Peter Selinger 2001-2013
</metadata>
<g transform="translate(0.000000,380.000000) scale(0.100000,-0.100000)"
fill="#000000" stroke="none">
<path d="M2357 3794 c-1 -1 -24 -4 -52 -8 -184 -22 -371 -118 -502 -257 -57
-61 -94 -115 -543 -790 -239 -360 -438 -656 -441 -659 -3 -3 -8 -9 -10 -15 -2
-5 -114 -174 -248 -375 -135 -201 -259 -397 -277 -436 -52 -111 -77 -223 -78
-344 -1 -128 8 -193 40 -288 109 -327 365 -540 728 -604 220 -39 470 24 654
165 128 98 240 251 293 404 26 73 35 115 44 208 2 17 4 343 4 725 l1 696 95
-47 c137 -67 211 -84 375 -83 109 0 150 4 215 23 301 85 522 313 612 631 18
63 27 290 13 341 -5 19 -16 63 -25 99 -46 180 -160 336 -330 451 -164 112
-305 158 -503 164 -34 1 -63 1 -65 -1z m158 -510 c44 -13 92 -39 135 -73 59
-47 75 -66 107 -126 24 -43 27 -62 28 -140 0 -79 -3 -97 -28 -147 -39 -80
-107 -152 -175 -185 -49 -23 -70 -27 -147 -28 -85 0 -94 2 -153 35 -34 19
-125 82 -201 139 l-140 104 99 146 c111 165 151 211 212 242 79 41 187 55 263
33z m-1047 -1914 l-3 -585 -31 -65 c-53 -111 -151 -187 -268 -209 -154 -28
-350 68 -419 206 -53 104 -56 239 -8 333 7 14 173 266 369 561 l357 537 3 -97
c2 -53 2 -359 0 -681z"/>
<path d="M3010 1623 c0 -160 -4 -235 -16 -283 -33 -143 -133 -288 -253 -369
-120 -80 -211 -106 -389 -110 l-23 -1 1 -250 1 -249 103 4 c124 4 202 18 304
52 338 113 605 377 713 706 48 145 59 235 59 490 l0 227 -250 0 -250 0 0 -217z"/>
</g>
</svg>
