<?xml version="1.0" standalone="no"?>
<!DOCTYPE svg PUBLIC "-//W3C//DTD SVG 20010904//EN"
 "http://www.w3.org/TR/2001/REC-SVG-20010904/DTD/svg10.dtd">
<svg version="1.0" xmlns="http://www.w3.org/2000/svg"
 width="700.000000pt" height="700.000000pt" viewBox="0 0 700.000000 700.000000"
 preserveAspectRatio="xMidYMid meet">
<metadata>
Created by potrace 1.11, written by Peter Selinger 2001-2013
</metadata>
<g transform="translate(0.000000,700.000000) scale(0.100000,-0.100000)"
fill="#000000" stroke="none">
<path d="M720 6980 c-375 -85 -640 -361 -708 -735 -4 -22 -7 -1266 -7 -2765
l0 -2725 23 -78 c34 -117 68 -193 128 -282 116 -174 246 -276 462 -363 l67
-27 3157 -2 3158 -3 0 3128 c0 3091 0 3128 -20 3197 -82 285 -295 514 -575
617 -165 60 11 57 -2920 56 -2505 0 -2695 -2 -2765 -18z"/>
</g>
</svg>
